<svg width="1200" height="600" viewBox="0 0 1200 600" fill="none" xmlns="http://www.w3.org/2000/svg">
<path d="M90 263.415L259.978 137L246.156 194.913L136.652 281.783L215.702 346.395H149.611L90 300.583V263.415Z" fill="white"/>
<path d="M180.497 277.245L215.702 248.936L290 314.197V346.395L106.415 470L131.037 397.393L174.881 365.411H208.359L200.151 390.045L258.898 342.937L180.497 277.245Z" fill="white"/>
<path d="M90 263.415L259.978 137L246.156 194.913L136.652 281.783L215.702 346.395H149.611L90 300.583V263.415Z" stroke="white" stroke-width="10"/>
<path d="M180.497 277.245L215.702 248.936L290 314.197V346.395L106.415 470L131.037 397.393L174.881 365.411H208.359L200.151 390.045L258.898 342.937L180.497 277.245Z" stroke="white" stroke-width="10"/>
<path d="M359.325 397V329.52L292.685 201H333.845L375.285 285H380.325L421.765 201H462.925L396.285 329.52V397H359.325ZM478.052 397V349.96L574.932 238.52V234.04H480.852V201H613.572V248.04L516.692 359.48V363.96H614.132V397H478.052Z" fill="white"/>
<path d="M631.54 397L683.06 201H747.46L798.98 397H760.9L750.26 353.88H680.26L669.62 397H631.54ZM688.94 319.72H741.58L717.78 224.24H712.74L688.94 319.72ZM895.28 400.92C871.014 400.92 851.787 394.2 837.6 380.76C823.414 367.133 816.32 347.72 816.32 322.52V275.48C816.32 250.28 823.414 230.96 837.6 217.52C851.787 203.893 871.014 197.08 895.28 197.08C919.36 197.08 937.934 203.707 951 216.96C964.254 230.027 970.88 248.04 970.88 271V272.68H934.48V269.88C934.48 258.307 931.214 248.787 924.68 241.32C918.334 233.853 908.534 230.12 895.28 230.12C882.214 230.12 871.947 234.133 864.48 242.16C857.014 250.187 853.28 261.107 853.28 274.92V323.08C853.28 336.707 857.014 347.627 864.48 355.84C871.947 363.867 882.214 367.88 895.28 367.88C908.534 367.88 918.334 364.147 924.68 356.68C931.214 349.027 934.48 339.507 934.48 328.12V323.08H970.88V327C970.88 349.96 964.254 368.067 951 381.32C937.934 394.387 919.36 400.92 895.28 400.92ZM1001 397V201H1127V234.6H1037.96V281.36H1119.16V314.96H1037.96V363.4H1128.68V397H1001Z" fill="#6889A7"/>
<line x1="633.5" y1="450.5" x2="1144.5" y2="450.5" stroke="#6889A7" stroke-width="5" stroke-linecap="round"/>
</svg>
